# Made in Blockbench 4.12.3
mtllib foundry_channel.mtl

o bot
v 0.25 0 -0.25
v -0.25 0 -0.25
v -0.25 0.125 -0.25
v 0.25 0.125 -0.25
v 0.25 0 0.25
v 0.25 0.125 0.25
v -0.25 0 0.25
v -0.25 0.125 0.25
vt 0.25 0
vt 0.75 0
vt 0.75 0.125
vt 0.25 0.125
vt 0.25 0
vt 0.75 0
vt 0.75 0.125
vt 0.25 0.125
vt 0.25 0
vt 0.75 0
vt 0.75 0.125
vt 0.25 0.125
vt 0.25 0
vt 0.75 0
vt 0.75 0.125
vt 0.25 0.125
vt 0.25 0.25
vt 0.75 0.25
vt 0.75 0.75
vt 0.25 0.75
vt 0.25 0.25
vt 0.75 0.25
vt 0.75 0.75
vt 0.25 0.75
vn 0 0 -1
vn 1 0 0
vn 0 0 1
vn -1 0 0
vn 0 1 0
vn 0 -1 0
usemtl m_07aec63c-a829-e7cc-1363-dc31f5ed2bbb
f 1/1/1 2/2/1 3/3/1 4/4/1
f 5/5/2 1/6/2 4/7/2 6/8/2
f 7/9/3 5/10/3 6/11/3 8/12/3
f 2/13/4 7/14/4 8/15/4 3/16/4
usemtl m_40125d25-df76-3368-a296-57acf5dd5b37
f 8/17/5 6/18/5 4/19/5 3/20/5
f 2/21/6 1/22/6 5/23/6 7/24/6
o bot1
v 0.5 0 -0.25
v 0.25 0 -0.25
v 0.25 0.125 -0.25
v 0.5 0.125 -0.25
v 0.5 0 0.25
v 0.5 0.125 0.25
v 0.25 0 0.25
v 0.25 0.125 0.25
vt 0.375 0
vt 0.625 0
vt 0.625 0.125
vt 0.375 0.125
vt 0.25 0
vt 0.75 0
vt 0.75 0.125
vt 0.25 0.125
vt 0.375 0
vt 0.625 0
vt 0.625 0.125
vt 0.375 0.125
vt 0 0.875
vt 0.5 0.875
vt 0.5 1
vt 0 1
vt 0 0.25
vt 0.25 0.25
vt 0.25 0.75
vt 0 0.75
vt 0 0.25
vt 0.25 0.25
vt 0.25 0.75
vt 0 0.75
vn 0 0 -1
vn 1 0 0
vn 0 0 1
vn -1 0 0
vn 0 1 0
vn 0 -1 0
usemtl m_07aec63c-a829-e7cc-1363-dc31f5ed2bbb
f 9/25/7 10/26/7 11/27/7 12/28/7
f 13/29/8 9/30/8 12/31/8 14/32/8
f 15/33/9 13/34/9 14/35/9 16/36/9
usemtl none
f 10/37/10 15/38/10 16/39/10 11/40/10
usemtl m_40125d25-df76-3368-a296-57acf5dd5b37
f 16/41/11 14/42/11 12/43/11 11/44/11
f 10/45/12 9/46/12 13/47/12 15/48/12
o bot2
v -0.25 0 -0.25
v -0.5 0 -0.25
v -0.5 0.125 -0.25
v -0.25 0.125 -0.25
v -0.25 0 0.25
v -0.25 0.125 0.25
v -0.5 0 0.25
v -0.5 0.125 0.25
vt 0.375 0
vt 0.625 0
vt 0.625 0.125
vt 0.375 0.125
vt 0 0.875
vt 0.5 0.875
vt 0.5 1
vt 0 1
vt 0.375 0
vt 0.625 0
vt 0.625 0.125
vt 0.375 0.125
vt 0.25 0
vt 0.75 0
vt 0.75 0.125
vt 0.25 0.125
vt 0.75 0.25
vt 1 0.25
vt 1 0.75
vt 0.75 0.75
vt 0.75 0.25
vt 1 0.25
vt 1 0.75
vt 0.75 0.75
vn 0 0 -1
vn 1 0 0
vn 0 0 1
vn -1 0 0
vn 0 1 0
vn 0 -1 0
usemtl m_07aec63c-a829-e7cc-1363-dc31f5ed2bbb
f 17/49/13 18/50/13 19/51/13 20/52/13
usemtl none
f 21/53/14 17/54/14 20/55/14 22/56/14
usemtl m_07aec63c-a829-e7cc-1363-dc31f5ed2bbb
f 23/57/15 21/58/15 22/59/15 24/60/15
f 18/61/16 23/62/16 24/63/16 19/64/16
usemtl m_40125d25-df76-3368-a296-57acf5dd5b37
f 24/65/17 22/66/17 20/67/17 19/68/17
f 18/69/18 17/70/18 21/71/18 23/72/18
o bot3
v 0.2500000000000001 0 0.5
v 0.25 0 0.25
v 0.25 0.125 0.25
v 0.2500000000000001 0.125 0.5
v -0.2499999999999999 0 0.5
v -0.2499999999999999 0.125 0.5
v -0.24999999999999994 0 0.25
v -0.24999999999999994 0.125 0.25
vt 0 0
vt 0.25 0
vt 0.25 0.125
vt 0 0.125
vt 0.25 0
vt 0.75 0
vt 0.75 0.125
vt 0.25 0.125
vt 0.75 0
vt 1 0
vt 1 0.125
vt 0.75 0.125
vt 0 0.875
vt 0.5 0.875
vt 0.5 1
vt 0 1
vt 0 0.25
vt 0.25 0.25
vt 0.25 0.75
vt 0 0.75
vt 0 0.25
vt 0.25 0.25
vt 0.25 0.75
vt 0 0.75
vn 1 0 -4.440892098500626
vn 0 0 1
vn -1 0 2.220446049250313
vn 0 0 -1
vn 0 1 0
vn 0 -1 0
usemtl m_07aec63c-a829-e7cc-1363-dc31f5ed2bbb
f 25/73/19 26/74/19 27/75/19 28/76/19
f 29/77/20 25/78/20 28/79/20 30/80/20
f 31/81/21 29/82/21 30/83/21 32/84/21
usemtl none
f 26/85/22 31/86/22 32/87/22 27/88/22
usemtl m_40125d25-df76-3368-a296-57acf5dd5b37
f 32/89/23 30/90/23 28/91/23 27/92/23
f 26/93/24 25/94/24 29/95/24 31/96/24
o bot4
v 0.25 0 -0.25000000000000006
v 0.2499999999999999 0 -0.5
v 0.2499999999999999 0.125 -0.5
v 0.25 0.125 -0.25000000000000006
v -0.25000000000000006 0 -0.24999999999999994
v -0.25000000000000006 0.125 -0.24999999999999994
v -0.2500000000000001 0 -0.49999999999999994
v -0.2500000000000001 0.125 -0.49999999999999994
vt 0.75 0
vt 1 0
vt 1 0.125
vt 0.75 0.125
vt 0 0.875
vt 0.5 0.875
vt 0.5 1
vt 0 1
vt 0 0
vt 0.25 0
vt 0.25 0.125
vt 0 0.125
vt 0.25 0
vt 0.75 0
vt 0.75 0.125
vt 0.25 0.125
vt 0.75 0.25
vt 1 0.25
vt 1 0.75
vt 0.75 0.75
vt 0.75 0.25
vt 1 0.25
vt 1 0.75
vt 0.75 0.75
vn 1 0 -4.440892098500627
vn 2.220446049250313 0 1
vn -1 0 2.220446049250313
vn -1.1102230246251565 0 -1
vn 0 1 0
vn 0 -1 0
usemtl m_07aec63c-a829-e7cc-1363-dc31f5ed2bbb
f 33/97/25 34/98/25 35/99/25 36/100/25
usemtl none
f 37/101/26 33/102/26 36/103/26 38/104/26
usemtl m_07aec63c-a829-e7cc-1363-dc31f5ed2bbb
f 39/105/27 37/106/27 38/107/27 40/108/27
f 34/109/28 39/110/28 40/111/28 35/112/28
usemtl m_40125d25-df76-3368-a296-57acf5dd5b37
f 40/113/29 38/114/29 36/115/29 35/116/29
f 34/117/30 33/118/30 37/119/30 39/120/30
o wall1
v 0.25 0.125 -0.25
v 0.125 0.125 -0.25
v 0.125 0.5 -0.25
v 0.25 0.5 -0.25
v 0.25 0.125 0.25
v 0.25 0.5 0.25
v 0.125 0.125 0.25
v 0.125 0.5 0.25
vt 0.125 0.125
vt 0.25 0.125
vt 0.25 0.5
vt 0.125 0.5
vt 0.25 0.125
vt 0.75 0.125
vt 0.75 0.5
vt 0.25 0.5
vt 0.75 0.125
vt 0.875 0.125
vt 0.875 0.5
vt 0.75 0.5
vt 0.25 0.125
vt 0.75 0.125
vt 0.75 0.5
vt 0.25 0.5
vt 0.625 0.25
vt 0.75 0.25
vt 0.75 0.75
vt 0.625 0.75
vt 0 0.5
vt 0.125 0.5
vt 0.125 1
vt 0 1
vn 0 0 -1
vn 1 0 0
vn 0 0 1
vn -1 0 0
vn 0 1 0
vn 0 -1 0
usemtl m_07aec63c-a829-e7cc-1363-dc31f5ed2bbb
f 41/121/31 42/122/31 43/123/31 44/124/31
f 45/125/32 41/126/32 44/127/32 46/128/32
f 47/129/33 45/130/33 46/131/33 48/132/33
usemtl m_ca741696-7c19-5a14-4763-640dc56f47b5
f 42/133/34 47/134/34 48/135/34 43/136/34
usemtl m_487cefdc-51d5-6071-2fc6-11f5a977b5ec
f 48/137/35 46/138/35 44/139/35 43/140/35
usemtl none
f 42/141/36 41/142/36 45/143/36 47/144/36
o wall2
v -0.125 0.125 -0.25
v -0.25 0.125 -0.25
v -0.25 0.5 -0.25
v -0.125 0.5 -0.25
v -0.125 0.125 0.25
v -0.125 0.5 0.25
v -0.25 0.125 0.25
v -0.25 0.5 0.25
vt 0.75 0.125
vt 0.875 0.125
vt 0.875 0.5
vt 0.75 0.5
vt 0.25 0.125
vt 0.75 0.125
vt 0.75 0.5
vt 0.25 0.5
vt 0.125 0.125
vt 0.25 0.125
vt 0.25 0.5
vt 0.125 0.5
vt 0.25 0.125
vt 0.75 0.125
vt 0.75 0.5
vt 0.25 0.5
vt 0.25 0.25
vt 0.375 0.25
vt 0.375 0.75
vt 0.25 0.75
vt 0 0.5
vt 0.125 0.5
vt 0.125 1
vt 0 1
vn 0 0 -1
vn 1 0 0
vn 0 0 1
vn -1 0 0
vn 0 1 0
vn 0 -1 0
usemtl m_07aec63c-a829-e7cc-1363-dc31f5ed2bbb
f 49/145/37 50/146/37 51/147/37 52/148/37
usemtl m_ca741696-7c19-5a14-4763-640dc56f47b5
f 53/149/38 49/150/38 52/151/38 54/152/38
usemtl m_07aec63c-a829-e7cc-1363-dc31f5ed2bbb
f 55/153/39 53/154/39 54/155/39 56/156/39
f 50/157/40 55/158/40 56/159/40 51/160/40
usemtl m_487cefdc-51d5-6071-2fc6-11f5a977b5ec
f 56/161/41 54/162/41 52/163/41 51/164/41
usemtl none
f 50/165/42 49/166/42 53/167/42 55/168/42
o wall3
v 0.25 0.125 0.25
v 0.25 0.125 0.125
v 0.25 0.5 0.125
v 0.25 0.5 0.25
v -0.24999999999999994 0.125 0.25
v -0.24999999999999994 0.5 0.25
v -0.25 0.125 0.125
v -0.25 0.5 0.125
vt 0.125 0.125
vt 0.25 0.125
vt 0.25 0.5
vt 0.125 0.5
vt 0.25 0.125
vt 0.75 0.125
vt 0.75 0.5
vt 0.25 0.5
vt 0.75 0.125
vt 0.875 0.125
vt 0.875 0.5
vt 0.75 0.5
vt 0.25 0.125
vt 0.75 0.125
vt 0.75 0.5
vt 0.25 0.5
vt 0.625 0.25
vt 0.75 0.25
vt 0.75 0.75
vt 0.625 0.75
vt 0 0.5
vt 0.125 0.5
vt 0.125 1
vt 0 1
vn 1 0 0
vn 0 0 1
vn -1 0 4.440892098500626
vn 0 0 -1
vn 0 1 0
vn 0 -1 0
usemtl m_07aec63c-a829-e7cc-1363-dc31f5ed2bbb
f 57/169/43 58/170/43 59/171/43 60/172/43
f 61/173/44 57/174/44 60/175/44 62/176/44
f 63/177/45 61/178/45 62/179/45 64/180/45
usemtl m_ca741696-7c19-5a14-4763-640dc56f47b5
f 58/181/46 63/182/46 64/183/46 59/184/46
usemtl m_487cefdc-51d5-6071-2fc6-11f5a977b5ec
f 64/185/47 62/186/47 60/187/47 59/188/47
usemtl none
f 58/189/48 57/190/48 61/191/48 63/192/48
o wall4
v 0.25 0.125 -0.12500000000000006
v 0.25 0.125 -0.25000000000000006
v 0.25 0.5 -0.25000000000000006
v 0.25 0.5 -0.12500000000000006
v -0.25 0.125 -0.12499999999999994
v -0.25 0.5 -0.12499999999999994
v -0.25000000000000006 0.125 -0.24999999999999994
v -0.25000000000000006 0.5 -0.24999999999999994
vt 0.75 0.125
vt 0.875 0.125
vt 0.875 0.5
vt 0.75 0.5
vt 0.25 0.125
vt 0.75 0.125
vt 0.75 0.5
vt 0.25 0.5
vt 0.125 0.125
vt 0.25 0.125
vt 0.25 0.5
vt 0.125 0.5
vt 0.25 0.125
vt 0.75 0.125
vt 0.75 0.5
vt 0.25 0.5
vt 0.25 0.25
vt 0.375 0.25
vt 0.375 0.75
vt 0.25 0.75
vt 0 0.5
vt 0.125 0.5
vt 0.125 1
vt 0 1
vn 1 0 0
vn 2.220446049250313 0 1
vn -1 0 4.440892098500626
vn -2.220446049250313 0 -1
vn 0 1 0
vn 0 -1 0
usemtl m_07aec63c-a829-e7cc-1363-dc31f5ed2bbb
f 65/193/49 66/194/49 67/195/49 68/196/49
usemtl m_ca741696-7c19-5a14-4763-640dc56f47b5
f 69/197/50 65/198/50 68/199/50 70/200/50
usemtl m_07aec63c-a829-e7cc-1363-dc31f5ed2bbb
f 71/201/51 69/202/51 70/203/51 72/204/51
f 66/205/52 71/206/52 72/207/52 67/208/52
usemtl m_487cefdc-51d5-6071-2fc6-11f5a977b5ec
f 72/209/53 70/210/53 68/211/53 67/212/53
usemtl none
f 66/213/54 65/214/54 69/215/54 71/216/54
o wall5
v 0.5 0.125 0.125
v 0.25 0.125 0.125
v 0.25 0.5 0.125
v 0.5 0.5 0.125
v 0.5 0.125 0.25
v 0.5 0.5 0.25
v 0.25 0.125 0.25
v 0.25 0.5 0.25
vt 0 0.125
vt 0.25 0.125
vt 0.25 0.5
vt 0 0.5
vt 0 0.125
vt 0.125 0.125
vt 0.125 0.5
vt 0 0.5
vt 0.75 0.125
vt 1 0.125
vt 1 0.5
vt 0.75 0.5
vt 0 0.625
vt 0.125 0.625
vt 0.125 1
vt 0 1
vt 0.75 0.25
vt 1 0.25
vt 1 0.375
vt 0.75 0.375
vt 0 0.875
vt 0.25 0.875
vt 0.25 1
vt 0 1
vn 0 0 -1
vn 1 0 0
vn 0 0 1
vn -1 0 0
vn 0 1 0
vn 0 -1 0
usemtl m_ca741696-7c19-5a14-4763-640dc56f47b5
f 73/217/55 74/218/55 75/219/55 76/220/55
usemtl m_07aec63c-a829-e7cc-1363-dc31f5ed2bbb
f 77/221/56 73/222/56 76/223/56 78/224/56
f 79/225/57 77/226/57 78/227/57 80/228/57
usemtl none
f 74/229/58 79/230/58 80/231/58 75/232/58
usemtl m_487cefdc-51d5-6071-2fc6-11f5a977b5ec
f 80/233/59 78/234/59 76/235/59 75/236/59
usemtl none
f 74/237/60 73/238/60 77/239/60 79/240/60
o wall6
v 0.5 0.125 -0.25
v 0.25 0.125 -0.25
v 0.25 0.5 -0.25
v 0.5 0.5 -0.25
v 0.5 0.125 -0.125
v 0.5 0.5 -0.125
v 0.25 0.125 -0.125
v 0.25 0.5 -0.125
vt 0 0.125
vt 0.25 0.125
vt 0.25 0.5
vt 0 0.5
vt 0.875 0.125
vt 1 0.125
vt 1 0.5
vt 0.875 0.5
vt 0 0.125
vt 0.25 0.125
vt 0.25 0.5
vt 0 0.5
vt 0 0.625
vt 0.125 0.625
vt 0.125 1
vt 0 1
vt 0 0.625
vt 0.25 0.625
vt 0.25 0.75
vt 0 0.75
vt 0 0.875
vt 0.25 0.875
vt 0.25 1
vt 0 1
vn 0 0 -1
vn 1 0 0
vn 0 0 1
vn -1 0 0
vn 0 1 0
vn 0 -1 0
usemtl m_07aec63c-a829-e7cc-1363-dc31f5ed2bbb
f 81/241/61 82/242/61 83/243/61 84/244/61
f 85/245/62 81/246/62 84/247/62 86/248/62
usemtl m_ca741696-7c19-5a14-4763-640dc56f47b5
f 87/249/63 85/250/63 86/251/63 88/252/63
usemtl none
f 82/253/64 87/254/64 88/255/64 83/256/64
usemtl m_487cefdc-51d5-6071-2fc6-11f5a977b5ec
f 88/257/65 86/258/65 84/259/65 83/260/65
usemtl none
f 82/261/66 81/262/66 85/263/66 87/264/66
o wall7
v -0.5 0.125 -0.12499999999999994
v -0.25 0.125 -0.125
v -0.25 0.5 -0.125
v -0.5 0.5 -0.12499999999999994
v -0.5 0.125 -0.24999999999999994
v -0.5 0.5 -0.24999999999999994
v -0.25000000000000006 0.125 -0.25
v -0.25000000000000006 0.5 -0.25
vt 0 0.125
vt 0.25 0.125
vt 0.25 0.5
vt 0 0.5
vt 0 0.125
vt 0.125 0.125
vt 0.125 0.5
vt 0 0.5
vt 0.75 0.125
vt 1 0.125
vt 1 0.5
vt 0.75 0.5
vt 0 0.625
vt 0.125 0.625
vt 0.125 1
vt 0 1
vt 0.75 0.25
vt 1 0.25
vt 1 0.375
vt 0.75 0.375
vt 0 0.875
vt 0.25 0.875
vt 0.25 1
vt 0 1
vn 2.220446049250313 0 1
vn -1 0 0
vn -2.2204460492503136 0 -1
vn 1 0 -4.440892098500626
vn 0 1 0
vn 0 -1 0
usemtl m_ca741696-7c19-5a14-4763-640dc56f47b5
f 89/265/67 90/266/67 91/267/67 92/268/67
usemtl m_07aec63c-a829-e7cc-1363-dc31f5ed2bbb
f 93/269/68 89/270/68 92/271/68 94/272/68
f 95/273/69 93/274/69 94/275/69 96/276/69
usemtl none
f 90/277/70 95/278/70 96/279/70 91/280/70
usemtl m_487cefdc-51d5-6071-2fc6-11f5a977b5ec
f 96/281/71 94/282/71 92/283/71 91/284/71
usemtl none
f 90/285/72 89/286/72 93/287/72 95/288/72
o wall8
v -0.49999999999999994 0.125 0.25
v -0.25 0.125 0.25
v -0.25 0.5 0.25
v -0.49999999999999994 0.5 0.25
v -0.5 0.125 0.125
v -0.5 0.5 0.125
v -0.25 0.125 0.125
v -0.25 0.5 0.125
vt 0 0.125
vt 0.25 0.125
vt 0.25 0.5
vt 0 0.5
vt 0.875 0.125
vt 1 0.125
vt 1 0.5
vt 0.875 0.5
vt 0 0.125
vt 0.25 0.125
vt 0.25 0.5
vt 0 0.5
vt 0 0.625
vt 0.125 0.625
vt 0.125 1
vt 0 1
vt 0 0.625
vt 0.25 0.625
vt 0.25 0.75
vt 0 0.75
vt 0 0.875
vt 0.25 0.875
vt 0.25 1
vt 0 1
vn 0 0 1
vn -1 0 4.440892098500626
vn 0 0 -1
vn 1 0 0
vn 0 1 0
vn 0 -1 0
usemtl m_07aec63c-a829-e7cc-1363-dc31f5ed2bbb
f 97/289/73 98/290/73 99/291/73 100/292/73
f 101/293/74 97/294/74 100/295/74 102/296/74
usemtl m_ca741696-7c19-5a14-4763-640dc56f47b5
f 103/297/75 101/298/75 102/299/75 104/300/75
usemtl none
f 98/301/76 103/302/76 104/303/76 99/304/76
usemtl m_487cefdc-51d5-6071-2fc6-11f5a977b5ec
f 104/305/77 102/306/77 100/307/77 99/308/77
usemtl none
f 98/309/78 97/310/78 101/311/78 103/312/78
o wall9
v -0.12499999999999989 0.125 0.5
v -0.12499999999999994 0.125 0.25
v -0.12499999999999994 0.5 0.25
v -0.12499999999999989 0.5 0.5
v -0.2499999999999999 0.125 0.5
v -0.2499999999999999 0.5 0.5
v -0.24999999999999994 0.125 0.25
v -0.24999999999999994 0.5 0.25
vt 0 0.125
vt 0.25 0.125
vt 0.25 0.5
vt 0 0.5
vt 0 0.125
vt 0.125 0.125
vt 0.125 0.5
vt 0 0.5
vt 0.75 0.125
vt 1 0.125
vt 1 0.5
vt 0.75 0.5
vt 0 0.625
vt 0.125 0.625
vt 0.125 1
vt 0 1
vt 0.75 0.25
vt 1 0.25
vt 1 0.375
vt 0.75 0.375
vt 0 0.875
vt 0.25 0.875
vt 0.25 1
vt 0 1
vn 1 0 -2.220446049250313
vn 0 0 1
vn -1 0 2.220446049250313
vn 0 0 -1
vn 0 1 0
vn 0 -1 0
usemtl m_ca741696-7c19-5a14-4763-640dc56f47b5
f 105/313/79 106/314/79 107/315/79 108/316/79
usemtl m_07aec63c-a829-e7cc-1363-dc31f5ed2bbb
f 109/317/80 105/318/80 108/319/80 110/320/80
f 111/321/81 109/322/81 110/323/81 112/324/81
usemtl none
f 106/325/82 111/326/82 112/327/82 107/328/82
usemtl m_487cefdc-51d5-6071-2fc6-11f5a977b5ec
f 112/329/83 110/330/83 108/331/83 107/332/83
usemtl none
f 106/333/84 105/334/84 109/335/84 111/336/84
o wall10
v 0.2500000000000001 0.125 0.5
v 0.25 0.125 0.25
v 0.25 0.5 0.25
v 0.2500000000000001 0.5 0.5
v 0.1250000000000001 0.125 0.5
v 0.1250000000000001 0.5 0.5
v 0.125 0.125 0.25
v 0.125 0.5 0.25
vt 0 0.125
vt 0.25 0.125
vt 0.25 0.5
vt 0 0.5
vt 0.875 0.125
vt 1 0.125
vt 1 0.5
vt 0.875 0.5
vt 0 0.125
vt 0.25 0.125
vt 0.25 0.5
vt 0 0.5
vt 0 0.625
vt 0.125 0.625
vt 0.125 1
vt 0 1
vt 0 0.625
vt 0.25 0.625
vt 0.25 0.75
vt 0 0.75
vt 0 0.875
vt 0.25 0.875
vt 0.25 1
vt 0 1
vn 1 0 -4.440892098500626
vn 0 0 1
vn -1 0 4.440892098500626
vn 0 0 -1
vn 0 1 0
vn 0 -1 0
usemtl m_07aec63c-a829-e7cc-1363-dc31f5ed2bbb
f 113/337/85 114/338/85 115/339/85 116/340/85
f 117/341/86 113/342/86 116/343/86 118/344/86
usemtl m_ca741696-7c19-5a14-4763-640dc56f47b5
f 119/345/87 117/346/87 118/347/87 120/348/87
usemtl none
f 114/349/88 119/350/88 120/351/88 115/352/88
usemtl m_487cefdc-51d5-6071-2fc6-11f5a977b5ec
f 120/353/89 118/354/89 116/355/89 115/356/89
usemtl none
f 114/357/90 113/358/90 117/359/90 119/360/90
o wall11
v 0.1250000000000001 0.125 -0.5
v 0.125 0.125 -0.25
v 0.125 0.5 -0.25
v 0.1250000000000001 0.5 -0.5
v 0.2500000000000001 0.125 -0.49999999999999994
v 0.2500000000000001 0.5 -0.49999999999999994
v 0.25 0.125 -0.24999999999999994
v 0.25 0.5 -0.24999999999999994
vt 0 0.125
vt 0.25 0.125
vt 0.25 0.5
vt 0 0.5
vt 0 0.125
vt 0.125 0.125
vt 0.125 0.5
vt 0 0.5
vt 0.75 0.125
vt 1 0.125
vt 1 0.5
vt 0.75 0.5
vt 0 0.625
vt 0.125 0.625
vt 0.125 1
vt 0 1
vt 0.75 0.25
vt 1 0.25
vt 1 0.375
vt 0.75 0.375
vt 0 0.875
vt 0.25 0.875
vt 0.25 1
vt 0 1
vn -1 0 -4.440892098500626
vn 4.440892098500626 0 -1
vn 1 0 4.440892098500626
vn -4.440892098500626 0 1
vn 0 1 0
vn 0 -1 0
usemtl m_ca741696-7c19-5a14-4763-640dc56f47b5
f 121/361/91 122/362/91 123/363/91 124/364/91
usemtl m_07aec63c-a829-e7cc-1363-dc31f5ed2bbb
f 125/365/92 121/366/92 124/367/92 126/368/92
f 127/369/93 125/370/93 126/371/93 128/372/93
usemtl none
f 122/373/94 127/374/94 128/375/94 123/376/94
usemtl m_487cefdc-51d5-6071-2fc6-11f5a977b5ec
f 128/377/95 126/378/95 124/379/95 123/380/95
usemtl none
f 122/381/96 121/382/96 125/383/96 127/384/96
o wall12
v -0.2499999999999999 0.125 -0.5
v -0.24999999999999994 0.125 -0.25000000000000006
v -0.24999999999999994 0.5 -0.25000000000000006
v -0.2499999999999999 0.5 -0.5
v -0.12499999999999989 0.125 -0.5
v -0.12499999999999989 0.5 -0.5
v -0.12499999999999994 0.125 -0.25
v -0.12499999999999994 0.5 -0.25
vt 0 0.125
vt 0.25 0.125
vt 0.25 0.5
vt 0 0.5
vt 0.875 0.125
vt 1 0.125
vt 1 0.5
vt 0.875 0.5
vt 0 0.125
vt 0.25 0.125
vt 0.25 0.5
vt 0 0.5
vt 0 0.625
vt 0.125 0.625
vt 0.125 1
vt 0 1
vt 0 0.625
vt 0.25 0.625
vt 0.25 0.75
vt 0 0.75
vt 0 0.875
vt 0.25 0.875
vt 0.25 1
vt 0 1
vn -1 0 -2.2204460492503136
vn 0 0 -1
vn 1 0 2.220446049250313
vn -4.440892098500626 0 1
vn 0 1 0
vn 0 -1 0
usemtl m_07aec63c-a829-e7cc-1363-dc31f5ed2bbb
f 129/385/97 130/386/97 131/387/97 132/388/97
f 133/389/98 129/390/98 132/391/98 134/392/98
usemtl m_ca741696-7c19-5a14-4763-640dc56f47b5
f 135/393/99 133/394/99 134/395/99 136/396/99
usemtl none
f 130/397/100 135/398/100 136/399/100 131/400/100
usemtl m_487cefdc-51d5-6071-2fc6-11f5a977b5ec
f 136/401/101 134/402/101 132/403/101 131/404/101
usemtl none
f 130/405/102 129/406/102 133/407/102 135/408/102